<svg width="125.79" height="72" id="Camada_2" data-name="Camada 2" xmlns="http://www.w3.org/2000/svg" viewBox="0 0 944.87 390.6">  
  <defs>
    <style>
      .cls-1 {
        fill: #fff;
      }

      .cls-2 {
        fill: #d21123;
      }
    </style>
  </defs>
  <g id="Layer_1" data-name="Layer 1">
    <g>
      <path class="cls-1" d="m123.86,148.58c-3.6,9.19-8.24,16.63-13.92,22.32-5.68,5.69-11.9,9.85-18.67,12.47-6.77,2.62-13.21,3.93-19.32,3.93-7.64,0-14.36-1.57-20.14-4.7-5.79-3.13-10.43-6.21-13.92-9.23l-2.95,11.46H5.48V1.31h38.97v48.9c3.27-2.21,7.58-4.3,12.93-6.29,5.35-1.99,11.63-2.98,18.83-2.98,7.86,0,15.01,1.48,21.45,4.43,6.44,2.96,12,7.5,16.7,13.62,4.69,6.13,8.35,13.9,10.97,23.3,2.62,9.41,3.93,20.46,3.93,33.15s-1.8,23.96-5.4,33.15Zm-41.92-68.15c-4.48-6.46-9.45-9.7-14.9-9.7s-9.88,1.26-13.92,3.78c-4.04,2.52-6.93,4.55-8.68,6.08v61.47c0,1.31.21,2.9.65,4.76.44,1.86,1.42,3.56,2.95,5.1,1.53,1.54,3.71,2.85,6.55,3.95,2.84,1.1,6.76,1.64,11.79,1.64,8.95,0,14.9-3.94,17.85-11.83,2.95-7.89,4.42-19.28,4.42-34.19s-2.24-24.6-6.71-31.06Z"/>
      <path class="cls-1" d="m221.28,185.02v-7.2c-3.49,2.18-7.97,4.31-13.43,6.39-5.46,2.07-11.79,3.11-18.99,3.11-3.49,0-7.86-.66-13.1-1.97-5.24-1.31-10.26-3.6-15.06-6.88-4.8-3.27-8.9-7.75-12.28-13.43-3.39-5.67-5.08-12.88-5.08-21.61s1.97-16.48,5.9-22.6c3.93-6.11,9.11-10.97,15.55-14.57,6.44-3.6,13.64-6.17,21.61-7.7,7.97-1.52,16.1-2.29,24.4-2.29h10.48v-4.26c0-6.98-1.42-12.17-4.26-15.56-2.84-3.38-8.84-5.08-18.01-5.08-4.15,0-7.64.82-10.48,2.46-2.84,1.64-5.13,3.49-6.88,5.57-1.75,2.08-3.11,4.15-4.09,6.22-.98,2.08-1.59,3.55-1.8,4.42l-31.11-6.22c2.62-8.51,5.89-15.33,9.82-20.47,3.93-5.13,9.44-9.82,16.54-14.08,7.09-4.26,16.32-6.39,27.67-6.39s21.29,1.42,29.14,4.26c7.86,2.84,14.19,6.61,18.99,11.3,4.8,4.7,8.24,10.26,10.32,16.7,2.07,6.44,3.11,13.26,3.11,20.47v89.4h-38.97Zm0-64.18h-3.6c-.88,0-3.33.16-7.37.49-4.04.33-8.3,1.15-12.77,2.46-4.48,1.31-8.51,3.39-12.12,6.22-3.6,2.84-5.4,6.66-5.4,11.46,0,6.99,1.8,11.52,5.4,13.59,3.6,2.08,8.89,3.11,15.88,3.11,4.36,0,8.35-1.03,11.95-3.11,3.6-2.07,6.27-3.65,8.02-4.75v-29.47Z"/>
      <path class="cls-1" d="m379.45,174.21c-10.04,8.3-25,12.44-44.86,12.44-13.97,0-26.03-2.95-36.19-8.84-10.15-5.89-18.17-16.05-24.07-30.45l29.15-13.43c3.71,9.17,8.13,15.5,13.26,18.99,5.13,3.49,11.84,5.24,20.14,5.24,7.21,0,12.39-1.25,15.55-3.77,3.16-2.51,4.75-5.4,4.75-8.68,0-1.52-.28-3-.82-4.42-.55-1.42-1.69-2.73-3.44-3.93-1.75-1.2-4.37-2.4-7.86-3.6-3.49-1.2-8.19-2.46-14.08-3.77-6.33-1.31-12.56-3-18.67-5.08-6.11-2.07-11.57-4.75-16.37-8.02-4.81-3.27-8.63-7.37-11.46-12.28-2.84-4.91-4.26-10.97-4.26-18.17,0-6.11,1.31-11.79,3.93-17.03,2.62-5.24,6.27-9.82,10.97-13.75,4.69-3.93,10.32-6.98,16.86-9.17,6.55-2.18,13.75-3.27,21.61-3.27,11.79,0,22.81,2.68,33.07,8.02,10.26,5.35,18.23,14.68,23.91,28l-29.14,13.75c-2.84-7.64-6.71-13.04-11.63-16.21-4.91-3.16-10.21-4.75-15.88-4.75s-10.21.98-12.93,2.95c-2.73,1.97-4.09,4.48-4.09,7.53,0,1.75.82,3.49,2.46,5.24,1.64,1.75,5.18,3.39,10.64,4.91,6.76,1.96,13.97,3.99,21.61,6.06,7.64,2.08,14.62,4.8,20.96,8.19,6.33,3.39,11.57,7.81,15.72,13.26,4.14,5.46,6.22,12.66,6.22,21.61,0,13.32-5.03,24.13-15.06,32.42Z"/>
      <path class="cls-1" d="m478.45,184.86c-5.02,1.2-10.04,1.8-15.06,1.8-16.81,0-28.65-3.65-35.53-10.97-6.88-7.31-10.32-17.95-10.32-31.93v-70.41h-22.27v-30.45h23.58V0l38.64,9.5v33.4h21.61v30.45h-21.94v69.42c0,4.8,1.2,8.24,3.6,10.31,2.4,2.08,5.45,3.11,9.17,3.11,1.96,0,4.31-.43,7.04-1.31,2.73-.87,6.6-2.62,11.63-5.24l6.22,28.82c-5.89,3.06-11.35,5.19-16.37,6.39Z"/>
      <path class="cls-1" d="m577.52,185.02v-7.2c-3.49,2.18-7.97,4.31-13.43,6.39-5.46,2.07-11.79,3.11-18.99,3.11-3.49,0-7.86-.66-13.1-1.97-5.24-1.31-10.26-3.6-15.06-6.88-4.8-3.27-8.9-7.75-12.28-13.43-3.39-5.67-5.08-12.88-5.08-21.61s1.97-16.48,5.9-22.6c3.93-6.11,9.11-10.97,15.55-14.57,6.44-3.6,13.64-6.17,21.61-7.7,7.97-1.52,16.1-2.29,24.4-2.29h10.48v-4.26c0-6.98-1.42-12.17-4.26-15.56-2.84-3.38-8.84-5.08-18.01-5.08-4.15,0-7.64.82-10.48,2.46-2.84,1.64-5.13,3.49-6.88,5.57-1.75,2.08-3.11,4.15-4.09,6.22-.98,2.08-1.59,3.55-1.8,4.42l-31.11-6.22c2.62-8.51,5.89-15.33,9.82-20.47,3.93-5.13,9.44-9.82,16.54-14.08,7.09-4.26,16.32-6.39,27.67-6.39s21.29,1.42,29.14,4.26c7.86,2.84,14.19,6.61,18.99,11.3,4.8,4.7,8.24,10.26,10.32,16.7,2.07,6.44,3.11,13.26,3.11,20.47v89.4h-38.97Zm0-64.18h-3.6c-.88,0-3.33.16-7.37.49-4.04.33-8.3,1.15-12.77,2.46-4.48,1.31-8.51,3.39-12.12,6.22-3.6,2.84-5.4,6.66-5.4,11.46,0,6.99,1.8,11.52,5.4,13.59,3.6,2.08,8.89,3.11,15.88,3.11,4.36,0,8.35-1.03,11.95-3.11,3.6-2.07,6.27-3.65,8.02-4.75v-29.47Z"/>
      <path class="cls-2" d="m726.79,184.79v-5.89c-3.06,2.16-6.88,4.1-11.46,5.83-4.58,1.72-10.04,2.59-16.37,2.59-7.64,0-14.9-1.32-21.78-3.93-6.88-2.63-12.94-6.84-18.18-12.64-5.24-5.8-9.44-13.24-12.61-22.32-3.17-9.08-4.75-20.07-4.75-32.98s1.58-23.74,4.75-33.15c3.16-9.4,7.26-17.17,12.28-23.3,5.02-6.13,10.69-10.66,17.03-13.62,6.33-2.95,12.66-4.43,18.99-4.43,7.2,0,13.48,1,18.83,2.98,5.35,1.99,9.66,4.08,12.94,6.29V1.31h38.97v183.47h-38.64Zm-.33-104.19c-1.75-1.53-4.64-3.56-8.68-6.08-4.04-2.52-8.68-3.78-13.92-3.78s-10.48,3.23-15.06,9.7c-4.58,6.47-6.88,16.82-6.88,31.06s1.52,26.3,4.58,34.19c3.06,7.89,9.06,11.83,18.01,11.83,7.86,0,13.31-.98,16.37-2.96,3.05-1.97,4.91-3.39,5.57-4.27v-69.69Z"/>
      <path class="cls-2" d="m882.01,177.32c-10.48,6.22-22.6,9.33-36.35,9.33-21.4,0-37.77-6.17-49.12-18.5-11.35-12.33-17.03-30.07-17.03-53.21s5.51-39.84,16.54-52.72c11.02-12.88,27.02-19.32,47.97-19.32,9.38,0,18.06,1.47,26.03,4.42,7.97,2.95,14.79,7.37,20.47,13.26,5.67,5.89,10.1,13.26,13.26,22.1,3.16,8.84,4.64,19.05,4.42,30.62,0,.44.05.93.16,1.47.11.55.05,1.15-.16,1.8,0,.44-.06.98-.16,1.64-.11.65-.16,2.18-.16,4.58h-88.09v.33c0,9.61,2.56,17.63,7.7,24.07,5.13,6.44,12.28,9.66,21.45,9.66,6.11,0,11.63-1.58,16.54-4.75,4.91-3.16,9.55-8.89,13.92-17.19l29.8,13.1c-7.64,13.32-16.7,23.09-27.18,29.31Zm-22.1-99.88c-3.82-4.04-8.9-6.06-15.23-6.06-13.54,0-21.4,7.97-23.58,23.9h46.17c-1.1-7.86-3.55-13.8-7.37-17.85Z"/>
      <path class="cls-1" d="m105.12,378.15c-10.04,8.3-25,12.44-44.86,12.44-13.97,0-26.03-2.95-36.19-8.84-10.15-5.89-18.17-16.05-24.07-30.45l29.15-13.43c3.71,9.17,8.13,15.5,13.26,18.99,5.13,3.49,11.84,5.24,20.14,5.24,7.21,0,12.39-1.25,15.55-3.77,3.16-2.51,4.75-5.4,4.75-8.68,0-1.52-.28-3-.82-4.42-.55-1.42-1.69-2.73-3.44-3.93-1.75-1.2-4.37-2.4-7.86-3.6-3.49-1.2-8.19-2.46-14.08-3.77-6.33-1.31-12.56-3-18.67-5.08-6.11-2.07-11.57-4.75-16.37-8.02-4.81-3.27-8.63-7.37-11.46-12.28-2.84-4.91-4.26-10.97-4.26-18.17,0-6.11,1.31-11.79,3.93-17.03,2.62-5.24,6.27-9.82,10.97-13.75,4.69-3.93,10.32-6.98,16.86-9.17,6.55-2.18,13.75-3.27,21.61-3.27,11.79,0,22.81,2.68,33.07,8.02,10.26,5.35,18.23,14.68,23.91,28l-29.14,13.75c-2.84-7.64-6.71-13.04-11.63-16.21-4.91-3.16-10.21-4.75-15.88-4.75s-10.21.98-12.93,2.95c-2.73,1.97-4.09,4.48-4.09,7.53,0,1.75.82,3.49,2.46,5.24,1.64,1.75,5.18,3.39,10.64,4.91,6.76,1.96,13.97,3.99,21.61,6.06,7.64,2.08,14.62,4.8,20.96,8.19,6.33,3.39,11.57,7.81,15.72,13.26,4.14,5.46,6.22,12.66,6.22,21.61,0,13.32-5.03,24.13-15.06,32.42Z"/>
      <path class="cls-1" d="m134.26,388.63v-21.94h12.45v-96.93l-12.45-.33v-22.92h51.74v120.18h12.77v21.94h-64.51Zm46.67-156.53c-4.26,4.15-9.55,6.22-15.88,6.22s-11.35-2.07-15.72-6.22c-4.37-4.14-6.55-9.17-6.55-15.06s2.18-10.91,6.55-15.06c4.36-4.14,9.6-6.22,15.72-6.22s11.62,2.08,15.88,6.22c4.26,4.15,6.39,9.17,6.39,15.06s-2.13,10.92-6.39,15.06Z"/>
      <path class="cls-1" d="m212.52,388.63v-21.94h12.45v-138.52h-12.45v-22.92h52.07v161.44h12.77v21.94h-64.84Z"/>
      <path class="cls-1" d="m393.29,381.26c-10.48,6.22-22.6,9.33-36.35,9.33-21.4,0-37.77-6.17-49.12-18.5-11.35-12.33-17.03-30.07-17.03-53.21s5.51-39.84,16.54-52.72c11.02-12.88,27.02-19.32,47.97-19.32,9.38,0,18.06,1.47,26.03,4.42,7.97,2.95,14.79,7.37,20.47,13.26,5.67,5.89,10.1,13.26,13.26,22.1,3.16,8.84,4.64,19.05,4.42,30.62,0,.44.05.93.16,1.47.11.55.05,1.15-.16,1.8,0,.44-.06.98-.16,1.64-.11.65-.16,2.18-.16,4.58h-88.09v.33c0,9.61,2.56,17.63,7.7,24.07,5.13,6.44,12.28,9.66,21.45,9.66,6.11,0,11.63-1.58,16.54-4.75,4.91-3.16,9.55-8.89,13.92-17.19l29.8,13.1c-7.64,13.32-16.7,23.09-27.18,29.31Zm-22.1-99.88c-3.82-4.04-8.9-6.06-15.23-6.06-13.54,0-21.4,7.97-23.58,23.9h46.17c-1.1-7.86-3.55-13.8-7.37-17.85Z"/>
      <path class="cls-1" d="m511.83,388.63v-86.71c0-9.85-1.03-16.53-3.09-20.03-2.06-3.5-6.01-5.25-11.85-5.25-4.33,0-8.5,1.43-12.5,4.27-4.01,2.84-7.52,5.8-10.55,8.87v98.85h-39.62v-139.83h39.62v11.64c4.54-3.24,9.95-6.31,16.23-9.23,6.27-2.92,12.76-4.38,19.47-4.38,5.94,0,11.44.82,16.5,2.46s9.46,4.37,13.2,8.19c3.74,3.82,6.71,8.79,8.91,14.9,2.2,6.11,3.3,13.65,3.3,22.6v93.66h-39.62Z"/>
      <path class="cls-1" d="m664.1,380c-9.61,7.07-21.5,10.6-35.69,10.6-19.87,0-35.37-6.17-46.5-18.5-11.13-12.33-16.7-30.07-16.7-53.21s5.45-39.51,16.37-52.4c10.91-12.88,26.41-19.32,46.5-19.32,13.75,0,25.54,3.48,35.37,10.43,9.82,6.95,17.24,17.78,22.27,32.47l-35.04,8.19c-3.06-7.86-6.12-13.37-9.17-16.54-3.06-3.16-7.42-4.75-13.1-4.75-3.27,0-6.34.65-9.17,1.95-2.84,1.3-5.24,3.58-7.2,6.83-1.97,3.25-3.55,7.58-4.75,13-1.2,5.41-1.8,12.13-1.8,20.14s.54,14.68,1.64,19.99c1.09,5.31,2.67,9.58,4.75,12.83,2.07,3.25,4.69,5.58,7.86,6.98,3.16,1.41,6.82,2.11,10.97,2.11,6.11,0,11.02-1.69,14.74-5.08,3.71-3.38,7.64-9.11,11.79-17.19l30.45,9.17c-6.11,14.47-13.97,25.24-23.58,32.3Z"/>
      <path class="cls-1" d="m701.76,388.63v-21.94h12.45v-96.93l-12.45-.33v-22.92h51.74v120.18h12.77v21.94h-64.51Zm46.67-156.53c-4.26,4.15-9.55,6.22-15.88,6.22s-11.35-2.07-15.72-6.22c-4.37-4.14-6.55-9.17-6.55-15.06s2.18-10.91,6.55-15.06c4.36-4.14,9.6-6.22,15.72-6.22s11.62,2.08,15.88,6.22c4.26,4.15,6.39,9.17,6.39,15.06s-2.13,10.92-6.39,15.06Z"/>
      <path class="cls-1" d="m888.56,371.6c-11.25,12.66-27.13,18.99-47.65,18.99s-36.41-6.17-47.65-18.5c-11.25-12.33-16.87-30.07-16.87-53.21s5.51-39.51,16.54-52.4c11.02-12.88,27.02-19.32,47.97-19.32,19.86,0,35.58,6.33,47.16,18.99,11.57,12.66,17.36,30.24,17.36,52.72s-5.62,40.06-16.86,52.72Zm-29.96-85.86c-4.37-5.85-10.26-8.77-17.68-8.77s-13.59,2.93-17.85,8.77c-4.26,5.85-6.39,16.9-6.39,33.14s2.13,27.3,6.39,33.15c4.26,5.85,10.2,8.77,17.85,8.77s13.31-2.92,17.68-8.77c4.36-5.85,6.55-16.9,6.55-33.15s-2.18-27.29-6.55-33.14Z"/>
      <path class="cls-1" d="m925.32,228.91c11,0,19.55,8.55,19.55,19.2s-8.55,19.32-19.67,19.32-19.78-8.43-19.78-19.32,8.78-19.2,19.78-19.2h.12Zm-.23,3.86c-8.43,0-14.75,6.91-14.75,15.34s6.32,15.34,14.98,15.34c8.43.12,14.63-6.79,14.63-15.34s-6.2-15.34-14.75-15.34h-.12Zm-2.93,25.29h-4.45v-19.08c1.76-.35,4.21-.7,7.38-.7,3.63,0,5.27.59,6.67,1.52,1.05.82,1.87,2.34,1.87,4.1,0,2.22-1.64,3.86-3.98,4.57v.23c1.87.59,2.93,2.11,3.51,4.68.59,2.93.94,4.1,1.4,4.68h-4.8c-.59-.7-.94-2.34-1.52-4.57-.35-2.11-1.52-3.04-3.98-3.04h-2.11v7.61Zm.12-10.77h2.11c2.46,0,4.45-.82,4.45-2.81,0-1.76-1.29-2.93-4.1-2.93-1.17,0-1.99.12-2.46.23v5.5Z"/>
    </g>
  </g>
</svg>