<svg width="150.6" height="52" id="Camada_2" data-name="Camada 2" xmlns="http://www.w3.org/2000/svg" viewBox="0 0 1131.22 390.6">
  <defs>
    <style>
      .cls-1 {
        fill: #fff;
      }

      .cls-2 {
        fill: #d21123;
      }
    </style>
  </defs>
  <g id="Layer_1" data-name="Layer 1">
    <path class="cls-1" d="m83.35,219.5v-47.61c-3.17,2.14-7.34,4.17-12.51,6.09-5.18,1.92-11.24,2.88-18.21,2.88-6.13,0-12.25-1.43-18.37-4.28-6.13-2.85-11.61-7.23-16.47-13.14-4.86-5.91-8.82-13.35-11.88-22.33-3.06-8.97-4.59-19.69-4.59-32.15s1.53-23.01,4.59-31.67c3.06-8.66,7.07-15.73,12.03-21.22,4.96-5.49,10.61-9.5,16.95-12.04,6.34-2.53,12.88-3.8,19.64-3.8,8.02,0,14.67,1.22,19.95,3.64,5.28,2.43,9.39,4.7,12.35,6.81l4.75-8.55h29.46v177.37h-37.69Zm0-142.59c-1.69-1.05-4.33-2.62-7.92-4.72-3.59-2.09-8.03-3.14-13.3-3.14-8.66,0-14.46,3.78-17.42,11.32-2.96,7.54-4.43,18.44-4.43,32.69s2.22,23.53,6.65,29.71c4.43,6.18,9.29,9.27,14.57,9.27s9.55-1.2,13.46-3.61c3.91-2.41,6.7-4.35,8.39-5.81v-65.7Z"/>
    <path class="cls-1" d="m214.79,177.37l-3.48-12.51c-4.65,3.35-10.25,6.58-16.79,9.72-6.55,3.13-13.2,4.7-19.95,4.7-5.7,0-10.98-.79-15.84-2.38-4.86-1.58-9.08-4.17-12.67-7.76-3.59-3.59-6.44-8.39-8.55-14.41-2.11-6.02-3.17-13.35-3.17-22.01V42.13h37.69v83.87c0,9.53,1,15.99,3.01,19.38,2,3.39,5.96,5.08,11.88,5.08,4.01,0,8.02-1.38,12.03-4.13,4.01-2.75,7.49-5.61,10.45-8.58V42.13h38.33v135.25h-32.94Z"/>
    <path class="cls-1" d="m359.85,170.25c-10.13,6.02-21.85,9.03-35.16,9.03-20.7,0-36.53-5.96-47.51-17.9-10.98-11.93-16.47-29.09-16.47-51.47s5.33-38.53,16-51c10.66-12.46,26.13-18.69,46.4-18.69,9.08,0,17.47,1.43,25.18,4.28,7.7,2.85,14.3,7.13,19.8,12.83,5.49,5.7,9.76,12.83,12.83,21.38,3.06,8.55,4.48,18.43,4.28,29.62,0,.43.05.9.16,1.43.11.53.05,1.11-.16,1.74,0,.43-.05.95-.16,1.58-.11.63-.16,2.11-.16,4.43h-85.2v.32c0,9.29,2.48,17.05,7.44,23.28,4.96,6.23,11.88,9.34,20.75,9.34,5.91,0,11.24-1.53,16-4.59,4.75-3.06,9.23-8.6,13.46-16.63l28.82,12.67c-7.39,12.88-16.15,22.33-26.29,28.35Zm-21.38-96.61c-3.7-3.9-8.61-5.86-14.73-5.86-13.09,0-20.7,7.71-22.8,23.12h44.66c-1.06-7.6-3.43-13.35-7.13-17.26Z"/>
    <path class="cls-1" d="m513.63,142.45c-3.49,8.89-7.97,16.08-13.46,21.59-5.49,5.5-11.51,9.53-18.05,12.07-6.55,2.53-12.78,3.8-18.69,3.8-7.39,0-13.89-1.51-19.48-4.54-5.6-3.03-10.09-6-13.46-8.93l-2.85,11.08h-28.51V0h37.69v47.29c3.17-2.13,7.33-4.16,12.51-6.08,5.17-1.92,11.24-2.88,18.21-2.88,7.6,0,14.52,1.43,20.75,4.29,6.22,2.86,11.61,7.25,16.15,13.17,4.54,5.93,8.08,13.44,10.61,22.54,2.53,9.1,3.8,19.79,3.8,32.07s-1.74,23.17-5.23,32.06Zm-40.54-65.92c-4.33-6.25-9.14-9.38-14.41-9.38s-9.56,1.22-13.46,3.66c-3.91,2.44-6.71,4.4-8.39,5.88v59.46c0,1.27.21,2.81.63,4.61.42,1.8,1.37,3.44,2.85,4.93,1.48,1.48,3.59,2.76,6.34,3.82,2.74,1.06,6.54,1.59,11.4,1.59,8.65,0,14.41-3.81,17.26-11.44,2.85-7.63,4.28-18.65,4.28-33.07s-2.17-23.79-6.49-30.05Z"/>
    <path class="cls-1" d="m621.79,73.8c-3.17-.42-6.55-.68-10.13-.79-3.59-.1-7.29.05-11.09.48-3.8.43-7.39,1.27-10.77,2.53-5.92,2.33-10.4,5.38-13.46,9.19-3.06,3.8-5.02,6.44-5.86,7.92v84.25h-38.33V42.13h38.33v13.3c5.7-5.28,12.3-9.34,19.8-12.19,7.49-2.85,15.25-3.96,23.28-3.33l15.84,34.84c-1.9-.21-4.44-.52-7.6-.95Z"/>
    <path class="cls-1" d="m705.7,177.69v-6.97c-3.38,2.11-7.71,4.17-12.99,6.18-5.28,2-11.4,3.01-18.37,3.01-3.38,0-7.6-.63-12.67-1.9-5.07-1.27-9.93-3.48-14.57-6.65-4.65-3.17-8.61-7.49-11.88-12.99-3.28-5.49-4.91-12.46-4.91-20.9s1.9-15.94,5.7-21.86c3.8-5.91,8.81-10.61,15.05-14.1,6.23-3.48,13.2-5.96,20.91-7.44,7.7-1.47,15.57-2.22,23.6-2.22h10.13v-4.12c0-6.76-1.37-11.77-4.12-15.05-2.75-3.27-8.55-4.91-17.42-4.91-4.01,0-7.39.79-10.13,2.38-2.75,1.58-4.96,3.38-6.65,5.38-1.69,2.01-3.01,4.01-3.96,6.02-.95,2.01-1.53,3.43-1.74,4.28l-30.09-6.02c2.53-8.24,5.7-14.83,9.5-19.8,3.8-4.96,9.13-9.5,16-13.62,6.86-4.12,15.78-6.18,26.76-6.18s20.59,1.38,28.19,4.12c7.6,2.75,13.72,6.39,18.37,10.93,4.64,4.54,7.97,9.93,9.98,16.15,2,6.23,3.01,12.83,3.01,19.8v86.47h-37.69Zm0-62.08h-3.48c-.85,0-3.22.16-7.13.48-3.91.32-8.03,1.11-12.35,2.38-4.33,1.27-8.23,3.28-11.72,6.02-3.49,2.75-5.23,6.44-5.23,11.09,0,6.76,1.74,11.14,5.23,13.14,3.48,2.01,8.6,3.01,15.36,3.01,4.22,0,8.08-1,11.56-3.01,3.48-2,6.07-3.53,7.76-4.59v-28.51Z"/>
    <path class="cls-1" d="m828.3,177.37v-83.87c0-9.53-.99-15.99-2.98-19.37-1.99-3.39-5.81-5.08-11.46-5.08-4.19,0-8.22,1.38-12.09,4.13-3.88,2.75-7.28,5.61-10.21,8.58v95.62h-38.32V42.13h38.32v11.26c4.4-3.13,9.63-6.11,15.69-8.93,6.07-2.82,12.34-4.23,18.83-4.23,5.75,0,11.07.79,15.96,2.38,4.89,1.58,9.15,4.23,12.77,7.92,3.62,3.7,6.49,8.5,8.62,14.41,2.13,5.91,3.19,13.2,3.19,21.86v90.59h-38.32Z"/>
    <path class="cls-1" d="m961.96,177.46v-5.7c-2.96,2.09-6.65,3.97-11.09,5.64-4.43,1.67-9.71,2.5-15.84,2.5-7.4,0-14.41-1.27-21.06-3.8-6.65-2.54-12.51-6.61-17.58-12.22-5.07-5.61-9.14-12.8-12.19-21.59-3.06-8.78-4.59-19.42-4.59-31.9s1.53-22.96,4.59-32.07c3.06-9.1,7.02-16.61,11.88-22.54,4.86-5.92,10.34-10.31,16.47-13.17,6.12-2.86,12.24-4.29,18.37-4.29,6.97,0,13.04.97,18.21,2.88,5.17,1.92,9.34,3.95,12.51,6.08V0h37.69v177.46h-37.37Zm-.32-100.78c-1.69-1.48-4.49-3.44-8.39-5.88-3.91-2.43-8.39-3.66-13.46-3.66s-10.14,3.13-14.57,9.38c-4.43,6.26-6.65,16.27-6.65,30.05s1.47,25.44,4.43,33.07c2.96,7.63,8.76,11.44,17.42,11.44,7.6,0,12.88-.95,15.84-2.86,2.95-1.91,4.75-3.28,5.38-4.13v-67.41Z"/>
    <path class="cls-1" d="m1114.91,160.9c-10.88,12.25-26.24,18.37-46.09,18.37s-35.21-5.96-46.09-17.9c-10.88-11.93-16.31-29.09-16.31-51.47s5.33-38.22,16-50.68c10.66-12.46,26.13-18.69,46.4-18.69,19.21,0,34.41,6.13,45.61,18.37,11.19,12.25,16.79,29.25,16.79,51s-5.44,38.75-16.31,50.99Zm-28.98-83.05c-4.23-5.66-9.93-8.49-17.1-8.49s-13.14,2.83-17.26,8.49c-4.12,5.66-6.18,16.34-6.18,32.06s2.06,26.4,6.18,32.06c4.12,5.66,9.87,8.48,17.26,8.48s12.88-2.83,17.1-8.48c4.22-5.66,6.34-16.34,6.34-32.06s-2.11-26.4-6.34-32.06Z"/>
    <path class="cls-2" d="m108.48,372.22c-10.88,12.25-26.24,18.37-46.09,18.37s-35.21-5.96-46.09-17.9c-10.88-11.93-16.31-29.09-16.31-51.47s5.33-38.22,16-50.68c10.66-12.46,26.13-18.69,46.4-18.69,19.21,0,34.41,6.13,45.61,18.37,11.19,12.25,16.79,29.25,16.79,51s-5.44,38.75-16.31,50.99Zm-28.98-83.05c-4.23-5.66-9.93-8.49-17.1-8.49s-13.14,2.83-17.26,8.49c-4.12,5.66-6.18,16.34-6.18,32.06s2.06,26.4,6.18,32.06c4.12,5.66,9.87,8.48,17.26,8.48s12.88-2.83,17.1-8.48c4.22-5.66,6.34-16.34,6.34-32.06s-2.11-26.4-6.34-32.06Z"/>
    <path class="cls-1" d="m237.81,378.56c-9.71,8.03-24.18,12.04-43.39,12.04-13.51,0-25.18-2.85-35-8.55-9.82-5.7-17.58-15.52-23.28-29.46l28.19-12.99c3.59,8.87,7.86,15,12.83,18.37,4.96,3.38,11.45,5.07,19.48,5.07,6.97,0,11.98-1.21,15.05-3.64,3.06-2.42,4.59-5.23,4.59-8.39,0-1.47-.27-2.9-.79-4.28-.53-1.37-1.64-2.64-3.33-3.8-1.69-1.16-4.23-2.32-7.6-3.48-3.38-1.16-7.92-2.38-13.62-3.64-6.13-1.27-12.14-2.9-18.05-4.91-5.92-2-11.2-4.59-15.84-7.76-4.65-3.17-8.34-7.13-11.08-11.88-2.75-4.75-4.12-10.61-4.12-17.58,0-5.91,1.27-11.4,3.8-16.47,2.53-5.07,6.07-9.5,10.61-13.3,4.54-3.8,9.98-6.76,16.31-8.87,6.33-2.11,13.3-3.17,20.9-3.17,11.4,0,22.06,2.59,31.99,7.76,9.92,5.18,17.63,14.2,23.12,27.08l-28.19,13.3c-2.75-7.39-6.49-12.62-11.24-15.68-4.75-3.06-9.87-4.59-15.36-4.59s-9.87.95-12.51,2.85c-2.64,1.9-3.96,4.33-3.96,7.29,0,1.69.79,3.38,2.38,5.07,1.58,1.69,5.01,3.28,10.29,4.75,6.54,1.9,13.51,3.86,20.9,5.86,7.39,2.01,14.15,4.65,20.27,7.92,6.12,3.28,11.19,7.55,15.2,12.83,4.01,5.28,6.02,12.25,6.02,20.9,0,12.88-4.86,23.34-14.57,31.36Z"/>
    <path class="cls-1" d="m265.68,388.7v-21.22h12.03v-93.75l-12.03-.32v-22.17h50.04v116.24h12.35v21.22h-62.4Zm45.13-151.4c-4.12,4.01-9.24,6.02-15.36,6.02s-10.98-2-15.2-6.02c-4.23-4.01-6.34-8.87-6.34-14.57s2.11-10.56,6.34-14.57c4.22-4.01,9.29-6.02,15.2-6.02s11.24,2.01,15.36,6.02c4.12,4.01,6.18,8.87,6.18,14.57s-2.06,10.56-6.18,14.57Z"/>
    <path class="cls-1" d="m341.06,388.7v-21.22h12.03v-133.98h-12.03v-22.17h50.36v156.15h12.35v21.22h-62.71Z"/>
    <path class="cls-1" d="m515.59,381.57c-10.13,6.02-21.85,9.03-35.16,9.03-20.7,0-36.53-5.96-47.51-17.9-10.98-11.93-16.47-29.09-16.47-51.47s5.33-38.53,16-51c10.66-12.46,26.13-18.69,46.4-18.69,9.08,0,17.47,1.43,25.18,4.28,7.7,2.85,14.3,7.13,19.8,12.83,5.49,5.7,9.76,12.83,12.83,21.38,3.06,8.55,4.48,18.43,4.28,29.62,0,.43.05.9.16,1.43.11.53.05,1.11-.16,1.74,0,.43-.05.95-.16,1.58-.11.63-.16,2.11-.16,4.43h-85.2v.32c0,9.29,2.48,17.05,7.44,23.28,4.96,6.23,11.88,9.34,20.75,9.34,5.91,0,11.24-1.53,16-4.59,4.75-3.06,9.23-8.6,13.46-16.63l28.82,12.67c-7.39,12.88-16.15,22.33-26.29,28.35Zm-19.32-145.23l-16.47-17.74-16.47,17.74h-29.77l31.04-38.64h30.09l31.36,38.64h-29.77Zm-2.06,48.62c-3.7-3.9-8.61-5.86-14.73-5.86-13.09,0-20.7,7.71-22.8,23.12h44.66c-1.06-7.6-3.43-13.35-7.13-17.26Z"/>
    <path class="cls-1" d="m629.93,388.7v-83.87c0-9.53-.99-15.99-2.98-19.37-1.99-3.39-5.81-5.08-11.46-5.08-4.19,0-8.22,1.38-12.09,4.13-3.88,2.75-7.28,5.61-10.21,8.58v95.62h-38.32v-135.25h38.32v11.26c4.4-3.13,9.63-6.11,15.69-8.93,6.07-2.82,12.34-4.23,18.83-4.23,5.75,0,11.07.79,15.96,2.38,4.89,1.58,9.15,4.23,12.77,7.92,3.62,3.7,6.49,8.5,8.62,14.41,2.13,5.91,3.19,13.2,3.19,21.86v90.59h-38.32Z"/>
    <path class="cls-1" d="m776.89,380.35c-9.29,6.84-20.8,10.25-34.52,10.25-19.22,0-34.21-5.96-44.98-17.9-10.77-11.93-16.15-29.09-16.15-51.47s5.28-38.22,15.84-50.68c10.56-12.46,25.55-18.69,44.98-18.69,13.3,0,24.71,3.37,34.21,10.09,9.5,6.73,16.68,17.19,21.54,31.4l-33.89,7.92c-2.96-7.6-5.92-12.93-8.87-16-2.96-3.06-7.18-4.59-12.67-4.59-3.17,0-6.13.63-8.87,1.89-2.75,1.26-5.07,3.46-6.97,6.6-1.9,3.14-3.43,7.33-4.59,12.57-1.16,5.24-1.74,11.73-1.74,19.48s.52,14.2,1.58,19.33c1.06,5.13,2.58,9.27,4.59,12.41,2,3.14,4.54,5.39,7.6,6.76,3.06,1.37,6.6,2.04,10.61,2.04,5.91,0,10.66-1.63,14.25-4.91,3.59-3.27,7.39-8.81,11.4-16.63l29.46,8.87c-5.92,14-13.52,24.41-22.81,31.24Z"/>
    <path class="cls-1" d="m808.86,388.7v-21.22h12.03v-93.75l-12.03-.32v-22.17h50.04v116.24h12.35v21.22h-62.4Zm45.13-151.4c-4.12,4.01-9.24,6.02-15.36,6.02s-10.98-2-15.2-6.02c-4.23-4.01-6.34-8.87-6.34-14.57s2.11-10.56,6.34-14.57c4.22-4.01,9.29-6.02,15.2-6.02s11.24,2.01,15.36,6.02c4.12,4.01,6.18,8.87,6.18,14.57s-2.06,10.56-6.18,14.57Z"/>
    <path class="cls-1" d="m986.22,372.22c-10.88,12.25-26.24,18.37-46.08,18.37s-35.21-5.96-46.09-17.9c-10.88-11.93-16.31-29.09-16.31-51.47s5.33-38.22,16-50.68c10.66-12.46,26.13-18.69,46.4-18.69,19.21,0,34.41,6.13,45.61,18.37,11.19,12.25,16.79,29.25,16.79,51s-5.44,38.75-16.31,50.99Zm-28.98-83.05c-4.23-5.66-9.93-8.49-17.1-8.49s-13.14,2.83-17.26,8.49c-4.12,5.66-6.18,16.34-6.18,32.06s2.06,26.4,6.18,32.06c4.12,5.66,9.87,8.48,17.26,8.48s12.88-2.83,17.1-8.48c4.22-5.66,6.33-16.34,6.33-32.06s-2.11-26.4-6.33-32.06Z"/>
    <path class="cls-1" d="m1021.36,233.89c10.58,0,18.79,8.21,18.79,18.45s-8.21,18.57-18.9,18.57-19.02-8.1-19.02-18.57,8.44-18.45,19.02-18.45h.11Zm-.22,3.71c-8.1,0-14.18,6.64-14.18,14.74s6.08,14.74,14.4,14.74c8.1.11,14.07-6.53,14.07-14.74s-5.96-14.74-14.18-14.74h-.11Zm-2.81,24.31h-4.28v-18.34c1.69-.34,4.05-.68,7.09-.68,3.49,0,5.06.56,6.41,1.46,1.01.79,1.8,2.25,1.8,3.94,0,2.14-1.58,3.71-3.83,4.39v.23c1.8.56,2.81,2.03,3.38,4.5.56,2.81.9,3.94,1.35,4.5h-4.61c-.56-.67-.9-2.25-1.46-4.39-.34-2.03-1.46-2.93-3.83-2.93h-2.03v7.31Zm.11-10.35h2.03c2.36,0,4.28-.79,4.28-2.7,0-1.69-1.24-2.81-3.94-2.81-1.13,0-1.91.11-2.36.23v5.29Z"/>
  </g>
</svg>